<svg width="20" height="20" viewBox="0 0 20 20" fill="none" xmlns="http://www.w3.org/2000/svg">
<path fill-rule="evenodd" clip-rule="evenodd" d="M11.9999 0C12.4248 0 12.7692 0.344396 12.7692 0.769231V4.87179C12.7692 4.9398 12.7962 5.00502 12.8443 5.0531C12.8924 5.10119 12.9576 5.1282 13.0256 5.1282H17.1281C17.553 5.1282 17.8974 5.4726 17.8974 5.89744C17.8974 6.32227 17.553 6.66667 17.1281 6.66667H13.0256C12.5496 6.66667 12.093 6.47756 11.7564 6.14096C11.4198 5.80436 11.2307 5.34782 11.2307 4.87179V0.769231C11.2307 0.344396 11.5751 0 11.9999 0Z" fill="black"/>
<path fill-rule="evenodd" clip-rule="evenodd" d="M4.82051 1.53846C4.48049 1.53846 4.1544 1.67353 3.91397 1.91397C3.67353 2.1544 3.53846 2.48049 3.53846 2.82051V17.1795C3.53846 17.5195 3.67353 17.8456 3.91397 18.086C4.1544 18.3265 4.48049 18.4615 4.82051 18.4615H15.0769C15.4169 18.4615 15.743 18.3265 15.9835 18.086C16.2239 17.8456 16.359 17.5195 16.359 17.1795V6.21606L11.6814 1.53846H4.82051ZM2.82611 0.826109C3.35506 0.29716 4.07247 0 4.82051 0H12C12.204 0 12.3997 0.0810437 12.5439 0.225303L17.6721 5.35351C17.8164 5.49777 17.8974 5.69342 17.8974 5.89744V17.1795C17.8974 17.9275 17.6003 18.6449 17.0713 19.1739C16.5424 19.7028 15.825 20 15.0769 20H4.82051C4.07247 20 3.35506 19.7028 2.82611 19.1739C2.29716 18.6449 2 17.9275 2 17.1795V2.82051C2 2.07247 2.29716 1.35506 2.82611 0.826109ZM7.12821 12.0513C7.12821 11.6264 7.4726 11.2821 7.89744 11.2821H7.90769C8.33253 11.2821 8.67692 11.6264 8.67692 12.0513C8.67692 12.4761 8.33253 12.8205 7.90769 12.8205H7.89744C7.4726 12.8205 7.12821 12.4761 7.12821 12.0513ZM12.0103 12.8205H12C11.5752 12.8205 11.2308 12.4761 11.2308 12.0513C11.2308 11.6264 11.5752 11.2821 12 11.2821H12.0103C12.4351 11.2821 12.7795 11.6264 12.7795 12.0513C12.7795 12.4761 12.4351 12.8205 12.0103 12.8205Z" fill="black"/>
<path fill-rule="evenodd" clip-rule="evenodd" d="M7.26608 14.6887C7.50884 14.34 7.98827 14.2542 8.33691 14.4969C8.80985 14.8263 9.37233 15.0028 9.94863 15.0028C10.5249 15.0028 11.0874 14.8263 11.5604 14.4969C11.909 14.2542 12.3884 14.34 12.6312 14.6887C12.8739 15.0373 12.7881 15.5167 12.4395 15.7595C11.7086 16.2684 10.8393 16.5413 9.94863 16.5413C9.05798 16.5413 8.1887 16.2684 7.45779 15.7595C7.10915 15.5167 7.02332 15.0373 7.26608 14.6887Z" fill="black"/>
</svg>
