<svg width="20" height="20" viewBox="0 0 20 20" fill="none" xmlns="http://www.w3.org/2000/svg">
<g clip-path="url(#clip0_95_182)">
<path fill-rule="evenodd" clip-rule="evenodd" d="M9.9702 0.204071C4.45694 0.204071 0 4.69387 0 10.2484C0 14.6884 2.85571 18.4467 6.81735 19.7769C7.31265 19.8769 7.49408 19.5608 7.49408 19.2949C7.49408 19.062 7.47775 18.2639 7.47775 17.4322C4.70429 18.031 4.12673 16.2349 4.12673 16.2349C3.68102 15.0708 3.02061 14.7716 3.02061 14.7716C2.11286 14.1563 3.08673 14.1563 3.08673 14.1563C4.09367 14.2228 4.62204 15.1873 4.62204 15.1873C5.51327 16.7171 6.94939 16.2849 7.52714 16.0188C7.60959 15.3702 7.87388 14.9212 8.15449 14.6718C5.94245 14.439 3.6151 13.5743 3.6151 9.71611C3.6151 8.61856 4.01102 7.7206 4.63837 7.02223C4.53939 6.77285 4.19265 5.74162 4.73755 4.36142C4.73755 4.36142 5.57939 4.0953 7.47755 5.39244C8.29022 5.17257 9.12832 5.06073 9.9702 5.05979C10.812 5.05979 11.6702 5.17632 12.4627 5.39244C14.361 4.0953 15.2029 4.36142 15.2029 4.36142C15.7478 5.74162 15.4008 6.77285 15.3018 7.02223C15.9457 7.7206 16.3253 8.61856 16.3253 9.71611C16.3253 13.5743 13.998 14.4222 11.7694 14.6718C12.1327 14.9877 12.4461 15.5863 12.4461 16.5343C12.4461 17.8812 12.4298 18.9622 12.4298 19.2947C12.4298 19.5608 12.6114 19.8769 13.1065 19.7771C17.0682 18.4465 19.9239 14.6884 19.9239 10.2484C19.9402 4.69387 15.4669 0.204071 9.9702 0.204071Z" fill="black"/>
</g>
<defs>
<clipPath id="clip0_95_182">
<rect width="20" height="20" fill="white"/>
</clipPath>
</defs>
</svg>
