<svg width="14" height="15" viewBox="0 0 14 15" fill="none" xmlns="http://www.w3.org/2000/svg">
<g id="Frame" clip-path="url(#clip0_95_267)">
<path id="Vector (Stroke)" fill-rule="evenodd" clip-rule="evenodd" d="M2.91667 3.85416C2.72328 3.85416 2.53781 3.93098 2.40107 4.06772C2.26432 4.20447 2.1875 4.38994 2.1875 4.58332V10.4167C2.1875 10.61 2.26432 10.7955 2.40107 10.9323C2.53781 11.069 2.72328 11.1458 2.91667 11.1458H11.0833C11.2767 11.1458 11.4622 11.069 11.5989 10.9323C11.7357 10.7955 11.8125 10.61 11.8125 10.4167V4.58332C11.8125 4.38994 11.7357 4.20447 11.5989 4.06772C11.4622 3.93098 11.2767 3.85416 11.0833 3.85416H2.91667ZM1.78235 3.44901C2.08319 3.14817 2.49122 2.97916 2.91667 2.97916H11.0833C11.5088 2.97916 11.9168 3.14817 12.2177 3.44901C12.5185 3.74985 12.6875 4.15787 12.6875 4.58332V10.4167C12.6875 10.8421 12.5185 11.2501 12.2177 11.551C11.9168 11.8518 11.5088 12.0208 11.0833 12.0208H2.91667C2.49121 12.0208 2.08319 11.8518 1.78235 11.551C1.48151 11.2501 1.3125 10.8421 1.3125 10.4167V4.58332C1.3125 4.15787 1.48151 3.74985 1.78235 3.44901Z" fill="black"/>
<path id="Vector (Stroke)_2" fill-rule="evenodd" clip-rule="evenodd" d="M1.38602 4.34065C1.52005 4.1396 1.79168 4.08528 1.99273 4.21931L7.00005 7.55752L12.0074 4.21931C12.2084 4.08528 12.48 4.1396 12.6141 4.34065C12.7481 4.54169 12.6938 4.81332 12.4927 4.94735L7.24273 8.44735C7.09577 8.54532 6.90432 8.54532 6.75737 8.44735L1.50737 4.94735C1.30632 4.81332 1.252 4.54169 1.38602 4.34065Z" fill="black"/>
</g>
<defs>
<clipPath id="clip0_95_267">
<rect width="14" height="14" fill="white" transform="translate(0 0.5)"/>
</clipPath>
</defs>
</svg>
